<?xml version="1.0" encoding="UTF-8" standalone="no"?>
<svg width="195px" height="59px" viewBox="0 0 195 59" version="1.1" xmlns="http://www.w3.org/2000/svg" xmlns:xlink="http://www.w3.org/1999/xlink" xmlns:sketch="http://www.bohemiancoding.com/sketch/ns">
    <!-- Generator: Sketch 3.3.3 (12072) - http://www.bohemiancoding.com/sketch -->
    <title>Pearson logo B&amp;W</title>
    <desc>Created with Sketch.</desc>
    <defs></defs>
    <g id="Page-1" stroke="none" stroke-width="1" fill="none" fill-rule="evenodd" sketch:type="MSPage">
        <g id="Home-large" sketch:type="MSArtboardGroup" transform="translate(-120.000000, -16.000000)">
            <g id="Header-bar" sketch:type="MSLayerGroup" transform="translate(90.000000, 0.000000)">
                <g id="Pearson-logo-B&amp;W" transform="translate(30.000000, 16.000000)" sketch:type="MSShapeGroup">
                    <path d="M121.738515,41.2513052 C121.665913,41.063552 121.465766,40.9551584 121.269543,40.9996772 L121.208714,41.0170976 C120.627896,41.140976 120.180508,41.1061352 119.866552,40.8970904 C119.421127,40.6009436 119.205282,39.931226 119.205282,38.8511612 L119.205282,29.0899302 C119.205282,25.2767981 116.901629,23.3431337 112.353191,23.3431337 C108.281573,23.3431337 105.090994,25.2438929 105.090994,27.6711354 C105.090994,28.9195974 105.862149,29.821587 107.00024,29.957079 C107.743923,30.0461166 108.454249,29.7131934 108.968352,29.1770322 C109.969087,28.1356794 109.841542,26.8949597 108.626925,25.5652025 C109.345099,24.8238677 110.616621,24.3864221 112.066706,24.3864221 C114.429225,24.3864221 115.437809,25.7684405 115.437809,29.008635 L115.437809,31.476525 C114.884462,31.6449222 114.366434,31.8036414 113.416717,32.0242998 C111.503547,32.4675522 108.878089,33.0579103 106.898204,34.1360395 C105.26367,35.0206087 104.433649,36.4161763 104.433649,38.2840304 C104.433649,40.318346 105.787584,42.6933273 109.602151,42.6933273 C111.739014,42.6933273 113.652184,41.6945576 115.616372,39.5499128 C115.787085,41.7777884 116.642616,42.6139677 118.71865,42.6139677 C119.717423,42.6139677 120.516049,42.3836312 121.465766,41.9307008 C121.722817,41.8068224 121.844475,41.5126112 121.738515,41.2513052 L121.738515,41.2513052 Z M115.437809,38.2685456 C114.974724,38.905358 113.459886,40.8003104 111.572225,40.8003104 C109.023294,40.8003104 108.487607,39.0350432 108.487607,37.5543092 C108.487607,35.1193243 110.379192,33.9928051 115.437809,32.7598279 L115.437809,38.2685456 Z M164.32077,42.7765581 C158.916801,42.7765581 154.841259,38.5995332 154.841259,33.0598459 C154.841259,27.6362946 159.093402,23.2231265 164.32077,23.2231265 C169.612893,23.2231265 173.761037,27.4717685 173.761037,32.8991911 C173.761037,39.0002024 168.86136,42.7765581 164.32077,42.7765581 Z M164.116699,24.2644793 C161.781651,24.2644793 159.099288,25.2555065 159.099288,32.9785507 C159.099288,38.8705172 160.861367,41.7332696 164.485597,41.7332696 C167.95285,41.7332696 169.501046,39.0350432 169.501046,32.9785507 C169.501046,27.1156181 167.738967,24.2644793 164.116699,24.2644793 Z M80.7750961,23.5715345 C80.7750961,28.0659978 79.6527032,30.5396946 73.9112314,30.5396946 L70.8678197,30.5396946 L70.8678197,16.9633959 L74.0348516,16.9633959 C79.9745081,16.9633959 80.7750961,20.3042416 80.7750961,23.5715345 Z M70.8678197,38.8511612 L70.8678197,31.7881566 L73.6247465,31.7881566 C77.7375711,31.7881566 80.8653585,30.9306858 82.923733,29.2370358 C85.0762944,27.4659617 85.5276062,25.2226013 85.5276062,23.6528297 C85.5276062,17.1956679 79.2112024,15.8407479 73.9112314,15.8407479 L73.9328159,15.8388123 L63.1857069,15.8388123 C62.942391,15.8388123 62.7442062,16.0362435 62.7442062,16.2743223 L62.7442062,16.3033563 L62.7442062,16.2956139 C62.7442062,16.5162723 62.8795998,16.7137035 63.0915201,16.7891919 C64.0490861,17.1375999 66.6490349,16.6498287 66.6490349,19.4003164 L66.6490349,38.84729 C66.6490349,40.2622136 66.0132738,41.2609832 63.1072179,41.5319672 C62.8756753,41.5532588 62.7029995,41.7390764 62.7029995,41.963606 L62.7029995,42.031352 C62.7029995,42.2713664 62.899222,42.4649264 63.142538,42.4649264 L74.6254815,42.4649264 C74.8687974,42.4649264 75.0669822,42.2713664 75.0669822,42.031352 L75.0669822,41.9713484 C75.0669822,41.7468188 74.8864575,41.55713 74.6549149,41.537774 C71.4976941,41.2880816 70.8638952,40.3241528 70.8638952,38.84729 L70.8638952,31.8017058 L70.8678197,38.8511612 Z M94.2183029,23.2134485 C89.2205146,23.2134485 85.1528212,27.6769422 85.1528212,33.1643683 C85.1528212,38.7195404 88.9654253,42.7513953 94.2183029,42.7513953 C98.631348,42.7513953 100.779985,40.1499488 102.0103,38.1949928 C102.131958,38.0014328 102.078978,37.7459336 101.890605,37.6123772 L101.831738,37.5717296 C101.641402,37.4381731 101.376501,37.4768851 101.229335,37.6588316 C99.6065741,39.6660488 98.1859228,40.8274088 95.733141,40.8274088 C92.6308625,40.8274088 89.3166636,38.7195404 89.3166636,32.8004755 L89.3166636,32.7578923 C89.310777,32.4965862 89.3166636,32.1385002 89.3264748,31.8036414 L102.020111,31.8036414 C102.055431,31.8036414 102.082903,31.776543 102.084865,31.7417022 L102.092714,31.641051 C102.273238,29.2157442 101.576648,27.0343229 100.13245,25.5032633 C98.7216104,24.0051089 96.6769714,23.2134485 94.2183029,23.2134485 Z M89.3971149,30.557115 C89.8150689,26.5078397 91.4162449,24.2877065 93.931818,24.2877065 C95.1896045,24.2877065 96.1236238,24.6322433 96.7829316,25.3406729 C97.6894798,26.3104085 98.074076,28.0659978 97.9229846,30.557115 L89.3971149,30.557115 Z M146.831455,30.7739022 L146.82753,30.7739022 C143.356353,29.811909 142.00438,28.8402378 142.00438,27.3053069 C142.00438,25.5574601 143.411296,24.2877065 145.349974,24.2877065 C147.63008,24.2877065 148.607269,25.3639001 151.014919,29.3338158 L151.046315,29.386077 C151.058088,29.4073686 151.079673,29.4189822 151.079673,29.4189822 L151.432873,29.4189822 C151.676189,29.4189822 151.874374,29.2234866 151.874374,28.9834722 L151.874374,23.2773233 C151.874374,23.2424825 151.844941,23.2134485 151.844941,23.2134485 L151.372044,23.2134485 C151.240575,23.2134485 151.114993,23.2715165 151.032579,23.3721677 L150.263387,24.2935133 C149.294048,23.7670301 147.714456,23.2134485 146.128978,23.2134485 C142.141736,23.2134485 139.357338,25.6426265 139.357338,29.1228354 C139.357338,32.3901282 141.553068,33.6134275 145.344088,34.6238107 C149.027185,35.6187091 150.334027,36.6542551 150.334027,38.576306 C150.334027,40.715144 148.234446,41.6752016 146.743155,41.6752016 C143.968568,41.6752016 142.797119,40.6590116 140.138304,35.9477611 L140.106908,35.8916287 C140.095135,35.8703371 140.07355,35.8567879 140.07355,35.8567879 L139.716425,35.8567879 C139.473109,35.8567879 139.274924,36.0542191 139.274924,36.2922979 L139.274924,42.6855849 C139.274924,42.7223613 139.304358,42.7513953 139.34164,42.7513953 L139.792952,42.7513953 C139.908723,42.7513953 140.022532,42.7049409 140.104946,42.6236457 L141.319563,41.4255092 C142.742177,42.2965292 144.869229,42.7513953 146.250636,42.7513953 C148.324708,42.7513953 150.029882,42.1029692 151.181709,40.8777344 C152.209915,39.7841204 152.775036,38.2356404 152.775036,36.5168275 C152.775036,33.5398747 151.164049,31.9836522 146.831455,30.7739022 Z M125.825831,40.1712404 C125.825831,41.1564608 125.572704,41.479706 123.981339,41.5784216 C123.749796,41.5939064 123.569272,41.7835952 123.569272,42.011996 C123.569272,42.2520104 123.767456,42.4455704 124.010772,42.4455704 L131.865561,42.4455704 C132.104952,42.4455704 132.299213,42.253946 132.299213,42.0197384 C132.299213,41.7874664 132.116726,41.595842 131.881259,41.586164 C130.064238,41.499062 129.593304,41.208722 129.593304,40.1712404 L129.593304,28.8092682 C130.88641,26.6878505 131.814543,25.5768161 133.384323,25.2419573 C133.307797,25.5110057 133.258741,25.8303797 133.258741,26.0916857 C133.258741,27.4717685 134.235929,28.4356974 135.634996,28.4356974 C137.008554,28.4356974 137.970044,27.4717685 137.970044,26.0916857 C137.970044,24.7870913 137.143947,23.2618385 134.812824,23.2618385 C132.903578,23.2618385 131.078709,24.3419033 129.51089,26.9259293 L129.51089,24.0031733 C129.51089,23.7050909 129.261688,23.4650765 128.959505,23.4728189 L124.010772,23.6044397 C123.769419,23.6121821 123.583007,23.8018709 123.583007,24.0380141 L123.583007,24.0999533 C123.583007,24.3148049 123.739985,24.4986869 123.949943,24.5277209 C125.600175,24.7580573 125.827793,25.5322973 125.825831,26.3355713 L125.825831,40.1712404 Z M180.153968,23.4612053 C180.267777,23.4612053 180.377661,23.5057241 180.458113,23.5850837 C180.546413,23.6663789 180.593506,23.7747725 180.595469,23.8947797 L180.611166,27.1349741 C180.611166,27.1349741 182.224116,23.3334557 187.455409,23.3334557 L187.502502,23.3334557 C190.763721,23.3334557 192.633722,25.3851917 192.633722,28.9621806 L192.633722,40.15382 C192.633722,41.1390404 192.888811,41.4622856 194.478214,41.5610012 C194.709756,41.5745504 194.890281,41.7642392 194.890281,41.9945756 C194.890281,42.2326544 194.692096,42.42815 194.450743,42.42815 L187.392618,42.42815 C187.149302,42.42815 186.951117,42.2326544 186.951117,41.99264 C186.951117,41.760368 187.129679,41.5706792 187.353373,41.5513232 C188.636669,41.4429296 188.84074,41.1235556 188.84074,40.15382 L188.84074,30.053859 C188.84074,26.7168845 187.879249,25.4200325 185.412732,25.4200325 C183.74484,25.4200325 182.381094,26.8543121 181.529488,28.0582554 C181.529488,28.0582554 181.093874,28.5963522 180.62294,29.6106066 L180.673958,40.1518844 C180.673958,41.12162 180.874105,41.440994 182.120118,41.5493876 C182.343811,41.5687436 182.520412,41.760368 182.520412,41.982962 C182.520412,42.2326544 182.322227,42.42815 182.080873,42.42815 L175.065917,42.42815 C174.824563,42.42815 174.626379,42.2326544 174.626379,41.99264 C174.626379,41.7642392 174.808866,41.5745504 175.038446,41.5590656 C176.627849,41.46035 176.880976,41.1390404 176.880976,40.15382 L176.880976,26.3375069 C176.880976,25.5322973 176.653358,24.7541861 174.995277,24.5219141 C174.785319,24.4928801 174.626379,24.3070625 174.626379,24.0922109 L174.626379,24.0283361 C174.626379,23.7902573 174.814752,23.6005685 175.056106,23.5928261 L180.153968,23.4612053 Z" id="Shape" fill="#000000"></path>
                    <path d="M42.2762322,3.78583087 C54.7147795,10.7772182 57.6110243,26.4517073 48.9556477,42.312014 C41.3500618,56.2522055 24.7417853,62.2061112 12.3660292,55.1102015 C-0.0116891001,48.0104206 -2.42718867,28.2072966 2.89240461,16.8124191 C10.6157241,0.263038803 28.532805,-3.94108448 42.2762322,3.78583087" id="Shape" fill="#007fa3"></path>
                    <path d="M41.9877851,15.8117139 C44.4229069,18.376384 45.1803259,22.26694 44.7584474,25.4587445 C44.2737778,29.0976726 42.0368407,32.4656166 38.3184234,34.6973635 C35.3691985,36.4703731 31.4938032,37.1749315 27.6811991,37.2097723 C27.6498035,37.8059372 27.5301077,39.8596088 27.4692787,40.1847896 C27.3809786,40.6628828 27.210265,40.9222532 27.0022691,41.189366 C26.592164,41.7177848 25.8818383,42.0565148 25.1754372,42.2558816 C24.6162029,42.4107296 24.0608931,42.4804112 23.6664858,42.4804112 C23.6017323,42.4804112 23.5369789,42.4746044 23.4722254,42.4687976 C23.0581959,42.4223432 22.5970729,42.2287832 22.3125502,41.9171516 C22.0280275,41.6016488 21.867125,41.2067864 21.8298427,40.7577272 L21.7984471,40.3512512 C21.7179959,40.0028432 21.2764951,22.3192012 21.3608708,22.6347041 C21.4256243,20.515222 24.8928767,20.147458 26.7746509,20.5210288 C28.6603496,20.8945996 28.1835288,23.1553805 28.132511,25.9329665 C28.132511,25.9329665 28.0422486,29.5854438 27.8676105,33.4450303 C30.2693745,33.3540571 32.1766577,32.6785327 33.9603206,31.805577 C37.5649288,30.0403098 39.472212,27.3362765 39.472212,23.3547473 C39.472212,19.373218 35.5438366,14.9135955 28.2934134,14.9135955 C21.0429903,14.9135955 17.9309007,16.7175747 14.4204793,19.5822628 C13.6297024,20.2287532 13.0194503,20.8791148 12.4445182,21.3068824 C11.867624,21.73465 10.3351259,21.8004604 9.92698296,20.7978196 C9.43053991,19.5900052 10.3547481,18.2428276 10.8982846,17.5905304 C11.7518527,16.5665979 13.8533961,14.5051839 16.18452,13.3070475 C18.8551089,11.9327714 22.1202521,10.4520374 26.6667285,10.337837 C30.7795531,10.2371858 37.2745195,10.5643022 41.952465,15.7768731 M26.2625101,45.0896001 C25.8838006,44.7992601 25.4599599,44.5998933 25.0302325,44.5166625 C24.8850278,44.4876285 24.7339364,44.4721437 24.5867695,44.4721437 C23.7783326,44.4721437 22.9836313,44.9115249 22.4656038,45.6489885 C22.0339142,46.2606381 21.8553516,46.9942305 21.9691607,47.7026602 C22.0437253,48.1575262 22.2144389,48.550453 22.4695282,48.8427286 C22.7540509,49.1717806 23.189665,49.4253442 23.7312392,49.5782566 C24.0432331,49.663423 24.3630758,49.7098774 24.6829186,49.7098774 L24.6848808,49.7098774 C25.3834331,49.7098774 26.0113452,49.5008326 26.4999394,49.1137126 C27.0670225,48.6549754 27.3750919,48.0065494 27.3692052,47.2806993 C27.3613563,46.4387133 26.949289,45.6160833 26.2625101,45.0896001" id="Shape" fill="#ffffff"></path>
                </g>
            </g>
        </g>
    </g>
</svg>